<svg width="23" height="23" viewBox="0 0 23 23" fill="none" xmlns="http://www.w3.org/2000/svg">
<path d="M14.3752 5.17501C13.8462 5.17501 13.4168 4.6598 13.4168 4.025V2.3H9.58351V4.025C9.58351 4.6598 9.15417 5.17501 8.62517 5.17501C8.09618 5.17501 7.66684 4.6598 7.66684 4.025V2.3C7.66684 1.03155 8.52647 0 9.58351 0H13.4168C14.4739 0 15.3335 1.03155 15.3335 2.3V4.025C15.3335 4.6598 14.9042 5.17501 14.3752 5.17501Z" fill="#6D3805"/>
<path d="M12.1804 15.387C12.0079 15.4675 11.7587 15.525 11.5 15.525C11.2413 15.525 10.9921 15.4675 10.7621 15.364L0 11.063V19.8375C0 21.5855 1.17875 23 2.63542 23H20.3646C21.8212 23 23 21.5855 23 19.8375V11.063L12.1804 15.387Z" fill="#6D3805"/>
<path d="M23 6.61251V9.24601L11.73 13.754C11.6533 13.7885 11.5767 13.8 11.5 13.8C11.4233 13.8 11.3467 13.7885 11.27 13.754L0 9.24601V6.61251C0 4.86451 1.17875 3.45001 2.63542 3.45001H20.3646C21.8212 3.45001 23 4.86451 23 6.61251Z" fill="#6D3805"/>
</svg>
